<svg width="30" height="30" viewBox="0 0 30 30" fill="none" xmlns="http://www.w3.org/2000/svg">
<path d="M8.95834 22.25C7.62918 22.25 6.55376 23.3375 6.55376 24.6667C6.55376 25.9958 7.62918 27.0833 8.95834 27.0833C10.2875 27.0833 11.375 25.9958 11.375 24.6667C11.375 23.3375 10.2875 22.25 8.95834 22.25ZM1.70834 2.91666V5.33332H4.12501L8.47501 14.5046L6.84376 17.465C6.65043 17.8033 6.54168 18.2021 6.54168 18.625C6.54168 19.9542 7.62918 21.0417 8.95834 21.0417H23.4583V18.625H9.46584C9.29668 18.625 9.16376 18.4921 9.16376 18.3229L9.20001 18.1779L10.2875 16.2083H19.2896C20.1958 16.2083 20.9933 15.7129 21.4042 14.9637L25.73 7.12166C25.8297 6.93725 25.8799 6.73013 25.8756 6.52055C25.8713 6.31096 25.8127 6.10606 25.7056 5.92588C25.5985 5.74569 25.4464 5.59637 25.2643 5.49252C25.0822 5.38866 24.8763 5.33381 24.6667 5.33332H6.79543L5.65959 2.91666H1.70834ZM21.0417 22.25C19.7125 22.25 18.6371 23.3375 18.6371 24.6667C18.6371 25.9958 19.7125 27.0833 21.0417 27.0833C22.3708 27.0833 23.4583 25.9958 23.4583 24.6667C23.4583 23.3375 22.3708 22.25 21.0417 22.25Z" fill="#F0F0F0"/>
</svg>
