<svg width="14" height="14" viewBox="0 0 14 14" fill="none" xmlns="http://www.w3.org/2000/svg">
<path d="M6.99413 1.16666C3.77413 1.16666 1.16663 3.77999 1.16663 6.99999C1.16663 10.22 3.77413 12.8333 6.99413 12.8333C10.22 12.8333 12.8333 10.22 12.8333 6.99999C12.8333 3.77999 10.22 1.16666 6.99413 1.16666ZM6.99996 11.6667C4.42163 11.6667 2.33329 9.57832 2.33329 6.99999C2.33329 4.42166 4.42163 2.33332 6.99996 2.33332C9.57829 2.33332 11.6666 4.42166 11.6666 6.99999C11.6666 9.57832 9.57829 11.6667 6.99996 11.6667Z" fill="#F0F0F0"/>
<path d="M7.29163 4.08334H6.41663V7.58334L9.47913 9.42084L9.91663 8.70334L7.29163 7.14584V4.08334Z" fill="#F0F0F0"/>
</svg>
