<svg width="21" height="22" viewBox="0 0 21 22" fill="none" xmlns="http://www.w3.org/2000/svg">
<path d="M8.27167 15.1883L9.91667 16.8333L15.75 11L9.91667 5.16667L8.27167 6.81167L11.2817 9.83333H0V12.1667H11.2817L8.27167 15.1883ZM18.6667 0.5H2.33333C1.71449 0.5 1.121 0.745833 0.683417 1.18342C0.245833 1.621 0 2.21449 0 2.83333V7.5H2.33333V2.83333H18.6667V19.1667H2.33333V14.5H0V19.1667C0 19.7855 0.245833 20.379 0.683417 20.8166C1.121 21.2542 1.71449 21.5 2.33333 21.5H18.6667C19.95 21.5 21 20.45 21 19.1667V2.83333C21 1.55 19.95 0.5 18.6667 0.5Z" fill="#CA3D5A"/>
</svg>
