<svg width="117" height="31" viewBox="0 0 117 31" fill="none" xmlns="http://www.w3.org/2000/svg">
<path d="M0.173231 30.567C0.0577437 30.567 0 30.4949 0 30.3506L0.0433077 0.606145C0.0433077 0.490689 0.101051 0.43296 0.216539 0.43296H22.7145C22.83 0.43296 22.8877 0.505121 22.8877 0.649441V5.4986C22.8877 5.61406 22.83 5.67179 22.7145 5.67179H5.24024V12.426H22.7145C22.83 12.426 22.8877 12.4837 22.8877 12.5992L22.931 17.4916C22.931 17.6071 22.8733 17.6648 22.7578 17.6648H5.24024V25.2416H22.7578C22.8733 25.2416 22.931 25.3138 22.931 25.4581L19.2092 30.3939C19.2092 30.5093 19.1515 30.567 19.036 30.567H0.173231Z" fill="white"/>
<path d="M16.2905 30.3506L21.6607 0.606145C21.6895 0.490689 21.7617 0.43296 21.8772 0.43296H28.1568C28.2723 0.43296 28.3445 0.490689 28.3734 0.606145L33.527 30.3506C33.5559 30.4949 33.4981 30.567 33.3537 30.567H28.5466C28.4311 30.567 28.3589 30.4949 28.33 30.3506L27.8537 27.1899H21.9638L21.4874 30.3506C21.4585 30.4949 21.3864 30.567 21.2709 30.567H16.4637C16.3482 30.567 16.2905 30.4949 16.2905 30.3506ZM22.83 22.5573H26.9875L25.2119 10.3911L24.952 8.78911L24.7788 10.3911L22.83 22.5573Z" fill="white"/>
<path d="M42.7613 31C41.2023 31 39.7731 30.6103 38.4739 29.831C37.2035 29.0228 36.1786 27.9693 35.399 26.6704C34.6484 25.3426 34.273 23.885 34.273 22.2975V20.3059C34.273 20.1615 34.3452 20.0894 34.4896 20.0894H39.34C39.4555 20.0894 39.5133 20.1615 39.5133 20.3059V22.2975C39.5133 23.25 39.8309 24.0726 40.466 24.7654C41.1012 25.4292 41.8663 25.7612 42.7613 25.7612C43.6564 25.7612 44.4215 25.4148 45.0567 24.7221C45.6918 24.0293 46.0094 23.2211 46.0094 22.2975C46.0094 21.2295 45.3165 20.3059 43.9307 19.5265C43.4687 19.2668 42.7469 18.8627 41.7653 18.3142C40.7836 17.7658 39.8597 17.2463 38.9936 16.7556C37.4056 15.8319 36.2219 14.6774 35.4423 13.2919C34.6917 11.8776 34.3163 10.29 34.3163 8.52933C34.3163 6.91294 34.7061 5.46974 35.4856 4.19972C36.2652 2.90084 37.2901 1.87616 38.5605 1.1257C39.8597 0.375233 41.26 0 42.7613 0C44.2916 0 45.6918 0.389665 46.9622 1.16899C48.2614 1.91946 49.2864 2.94413 50.0371 4.24302C50.8166 5.51304 51.2064 6.94181 51.2064 8.52933V12.0796C51.2064 12.1951 51.1486 12.2528 51.0331 12.2528H46.1827C46.0672 12.2528 46.0094 12.1951 46.0094 12.0796L45.9661 8.52933C45.9661 7.51909 45.6485 6.69646 45.0134 6.06145C44.3782 5.42644 43.6275 5.10894 42.7613 5.10894C41.8663 5.10894 41.1012 5.45531 40.466 6.14805C39.8309 6.81192 39.5133 7.60568 39.5133 8.52933C39.5133 9.48184 39.7154 10.2756 40.1196 10.9106C40.5238 11.5456 41.26 12.1518 42.3283 12.729C42.4726 12.8156 42.7469 12.9744 43.1511 13.2053C43.5842 13.4074 44.0461 13.6527 44.537 13.9413C45.0278 14.2011 45.4609 14.432 45.8362 14.6341C46.2404 14.8361 46.4858 14.966 46.5724 15.0237C48.016 15.8319 49.1565 16.8277 49.9937 18.0112C50.831 19.1657 51.2497 20.5945 51.2497 22.2975C51.2497 23.9427 50.8599 25.4292 50.0804 26.757C49.3297 28.0559 48.3047 29.095 47.0055 29.8743C45.7351 30.6248 44.3204 31 42.7613 31Z" fill="white"/>
<path d="M57.4434 30.567C57.3567 30.567 57.3134 30.5093 57.3134 30.3939L57.3567 18.0978L51.5535 0.606145C51.5246 0.490689 51.5679 0.43296 51.6834 0.43296H56.4906C56.6349 0.43296 56.7216 0.490689 56.7504 0.606145L59.9552 12.2528L63.2033 0.606145C63.2322 0.490689 63.3043 0.43296 63.4198 0.43296H68.2703C68.3858 0.43296 68.4291 0.490689 68.4002 0.606145L62.5537 17.9246L62.597 30.3939C62.597 30.5093 62.5392 30.567 62.4237 30.567H57.4434Z" fill="white"/>
<path d="M70.9713 30.567C70.8558 30.567 70.798 30.4949 70.798 30.3506L70.8847 0.606145C70.8847 0.490689 70.9424 0.43296 71.0579 0.43296H79.373C81.0187 0.43296 82.4911 0.837057 83.7904 1.64525C85.0896 2.42458 86.1146 3.46369 86.8652 4.76257C87.6159 6.06145 87.9912 7.47579 87.9912 9.00559C87.9912 10.2467 87.7025 11.4013 87.1251 12.4693C86.5765 13.5372 85.9125 14.4032 85.1329 15.067C85.9702 15.9041 86.6198 16.871 87.0818 17.9679C87.5437 19.0647 87.7747 20.2193 87.7747 21.4316C87.7747 23.1057 87.3705 24.6355 86.5621 26.0209C85.7537 27.4064 84.6565 28.5177 83.2707 29.3547C81.9137 30.1629 80.3979 30.567 78.7234 30.567H70.9713ZM76.0816 12.3827H79.373C80.3835 12.3827 81.1919 12.0363 81.7982 11.3436C82.4334 10.622 82.751 9.84264 82.751 9.00559C82.751 8.08194 82.419 7.28817 81.7549 6.6243C81.0909 5.93156 80.2969 5.5852 79.373 5.5852H76.0816V12.3827ZM76.0383 25.2849H78.7234C79.7628 25.2849 80.6578 24.9097 81.4085 24.1592C82.1591 23.3799 82.5345 22.4707 82.5345 21.4316C82.5345 20.3925 82.1591 19.4977 81.4085 18.7472C80.6578 17.9967 79.7628 17.6215 78.7234 17.6215H76.0816L76.0383 25.2849Z" fill="white"/>
<path d="M91.1036 30.567C90.9593 30.567 90.8871 30.4949 90.8871 30.3506L90.9304 0.606145C90.9304 0.490689 90.9882 0.43296 91.1036 0.43296H95.9541C96.0696 0.43296 96.1273 0.490689 96.1273 0.606145L96.1707 30.3506C96.1707 30.4949 96.1129 30.567 95.9974 30.567H91.1036Z" fill="white"/>
<path d="M100.197 30.567C100.052 30.567 99.98 30.4949 99.98 30.3506L100.067 0.606145C100.067 0.490689 100.124 0.43296 100.24 0.43296L108.338 0.389665C109.926 0.360801 111.37 0.736034 112.669 1.51536C113.997 2.29469 115.051 3.34823 115.831 4.67598C116.61 5.97486 117 7.41806 117 9.00559V21.4316C117 23.1057 116.596 24.6355 115.787 26.0209C114.979 27.3776 113.896 28.46 112.539 29.2682C111.182 30.0763 109.652 30.4949 107.949 30.5237L100.197 30.567ZM105.264 25.2416H107.949C109.017 25.2416 109.912 24.8664 110.634 24.1159C111.384 23.3655 111.76 22.4707 111.76 21.4316V8.96229C111.76 8.03864 111.413 7.24488 110.72 6.58101C110.056 5.88827 109.262 5.55633 108.338 5.5852L105.307 5.62849L105.264 25.2416Z" fill="white"/>
</svg>
